<svg xmlns="http://www.w3.org/2000/svg" viewBox="0 0 208.79 69.05">
    <defs>
        <style>.class-path{fill-rule:nonzero;}</style>

        <linearGradient id="grad2" spreadMethod="pad">
            <stop offset="0%" style="stop-color:#f2f51d;stop-opacity:1"/>
            <stop offset="100%" style="stop-color:#27d56e;stop-opacity:1"/>
        </linearGradient>
    </defs>

    <path fill="url(#grad2)"
          class="class-path"
          d="M25.36,40l-.7,2.91c1.68.44,3.38.77,5.07,1.11l.59-2.94C28.66,40.74,27,40.42,25.36,40ZM16.58 37.59 15.68 40.45 20.67 41.9 21.45 39.01 16.58 37.59M8,34.55l-1.09,2.8c1.62.61,3.21,1.28,4.87,1.8l1-2.84C11.18,35.81,9.61,35.15,8,34.55Z
                    M52.42 43.6 52.33 46.6 54.92 46.68 57.52 46.67 57.5 43.67 54.96 43.68 52.42 43.6
            M43.34,43,43,46c1.72.16,3.45.27,5.17.41l.19-3C46.71,43.29,45,43.19,43.34,43Z
            M34.34,41.81l-.49,3c1.71.25,3.41.59,5.13.77l.38-3C37.68,42.39,36,42.06,34.34,41.81Z
            M79.66,41.69l.51,3,2.56-.45c.85-.16,1.69-.36,2.54-.54l-.63-2.94c-.83.18-1.65.37-2.48.54Z
            M70.64,43l.31,3c1.73-.16,3.44-.43,5.15-.64l-.42-3C74,42.54,72.33,42.8,70.64,43Z
            M61.59,43.59l.11,3c1.73-.1,3.46-.14,5.18-.28l-.22-3C65,43.46,63.28,43.49,61.59,43.59Z

            M104.81,32.94l2.07,2.18a15.3,15.3,0,0,0,3.36-4.76l-2.73-1.23A12.47,12.47,0,0,1,104.81,32.94Z
            M97.29,37.3l1,2.81a29.88,29.88,0,0,0,5-2.3l-1.53-2.58A27.91,27.91,0,0,1,97.29,37.3Z
            M88.63 39.82 89.35 42.73 94.37 41.4 93.53 38.52 88.63 39.82

            M96.94,16.09l.17-3L95.71,13l-1.4.08a21.47,21.47,0,0,0-2.76.35l.55,2.95a18.21,18.21,0,0,1,2.42-.31L95.73,16Z
            M105,18.61l1.74-2.45a16.67,16.67,0,0,0-5.25-2.39l-.78,2.9A13.37,13.37,0,0,1,105,18.61Z
            M108.43,25.52l3,.18a10.58,10.58,0,0,0-1.38-6l-2.59,1.52A7.55,7.55,0,0,1,108.43,25.52Z

            M76.26,29.17l-2.86-.91a16.06,16.06,0,0,0-.63,2.81l-.17,1.44,0,1.44,3-.1,0-1.18.15-1.18A12.35,12.35,0,0,1,76.26,29.17Z
            M80.94,22l-2-2.19c-.7.61-1.29,1.35-1.93,2a26.63,26.63,0,0,0-1.64,2.3l2.54,1.58c.4-.69.94-1.3,1.4-2S80.33,22.56,80.94,22Z
            M88.32,17.48l-1.06-2.81a27.71,27.71,0,0,0-4.93,2.47L84,19.66A24,24,0,0,1,88.32,17.48Z

            M88,49.84l-1.23,2.74a32.53,32.53,0,0,0,5.13,1.79l.77-2.9A29,29,0,0,1,88,49.84Z
            M80.75,44.89,78.62,47a26.75,26.75,0,0,0,4.28,3.47L84.55,48A23,23,0,0,1,80.75,44.89Z
            M76.24,37.63l-2.86.89a19.36,19.36,0,0,0,2.45,5.1L78.32,42A16.55,16.55,0,0,1,76.24,37.63Z

            M114.64,52.88l.08,3c1.71,0,3.42-.09,5.14-.15l-.11-3C118.05,52.78,116.35,52.85,114.64,52.88Z
            M105.51,53l-.05,3c1.74,0,3.47,0,5.18,0l0-3C108.9,53,107.2,53,105.51,53Z
            M96.55,52.29l-.47,3c1.76.28,3.51.45,5.26.57l.2-3C99.86,52.72,98.19,52.55,96.55,52.29Z

            M142.06,51.14l.33,3c1.7-.2,3.41-.36,5.12-.61l-.39-3C145.44,50.78,143.74,50.94,142.06,51.14Z
            M133,52l.22,3c1.72-.11,3.43-.3,5.14-.44l-.28-3C136.34,51.7,134.65,51.88,133,52Z
            M123.86 52.55 124 55.55 129.14 55.27 128.95 52.27 123.86 52.55

            M169.06 46.47 169.78 49.38 174.79 48.05 173.97 45.16 169.06 46.47
            M160.15,48.42l.58,2.94c1.69-.33,3.38-.65,5.06-1.06l-.66-2.93C163.48,47.78,161.81,48.09,160.15,48.42Z
            M151.18,50l.45,3c1.7-.25,3.4-.56,5.09-.83l-.51-3C154.53,49.42,152.86,49.72,151.18,50Z

            M194.88,37.51l1.26,2.73c1.59-.67,3.11-1.52,4.67-2.28l-1.37-2.67C197.92,36,196.44,36.86,194.88,37.51Z
            M186.49,41l1.06,2.8c1.61-.64,3.23-1.25,4.82-1.92l-1.17-2.77C189.64,39.81,188.06,40.41,186.49,41Z
            M177.9,44l.89,2.87c1.66-.48,3.29-1.05,4.92-1.62l-1-2.84C181.13,43,179.53,43.51,177.9,44Z"/>
</svg>
