<svg xmlns="http://www.w3.org/2000/svg" viewBox="0 0 214.53 61.69">
    <defs>
        <style>.class-path{fill-rule:evenodd;}</style>

        <linearGradient id="grad1" spreadMethod="pad">
            <stop offset="0%" style="stop-color:#f43d4e;stop-opacity:1"/>
            <stop offset="100%" style="stop-color:#f2f51d;stop-opacity:1"/>
        </linearGradient>
    </defs>

    <path fill="url(#grad1)"
          class="class-path"
          d="M13.59,39.21l2.63,1.43a33.76,33.76,0,0,1,2.46-3.91l-2.41-1.79A37.22,37.22,0,0,0,13.59,39.21ZM18.78,31.88l2.21,2a44.4,44.4,0,0,1,3.38-3.2l-1.94-2.28A45.69,45.69,0,0,0,18.78,31.88ZM25.58,26l1.73,2.45a44.16,44.16,0,0,1,4-2.52L29.8,23.31A47.77,47.77,0,0,0,25.58,26ZM33.36,21.46l1.29,2.71c.71-.34,1.45-.64,2.17-1s1.45-.64,2.2-.9L38,19.52c-.79.27-1.55.6-2.31.94S34.11,21.1,33.36,21.46ZM41.64 18.23 42.56 21.09 44.83 20.39 47.15 19.79 46.41 16.88 44.02 17.5 41.64 18.23M50.25,16l.6,2.94c1.55-.36,3.14-.57,4.71-.84l-.44-3C53.5,15.42,51.86,15.64,50.25,16ZM59.08,14.63l.32,3c1.6-.12,3.18-.32,4.79-.39l-.18-3C62.37,14.3,60.72,14.5,59.08,14.63ZM67.89,14,68,17c1.6-.06,3.21-.11,4.83-.1l0-3C71.17,13.93,69.53,14,67.89,14ZM76.73,14l-.07,3c1.61,0,3.22.1,4.83.18l.16-3C80,14.08,78.37,14,76.73,14ZM85.62,14.44l-.25,3c1.61.1,3.21.31,4.81.46l.34-3C88.89,14.75,87.26,14.55,85.62,14.44ZM94.38,15.4l-.42,3c1.59.24,3.19.47,4.77.75l.52-2.95C97.63,15.88,96,15.65,94.38,15.4Z        M103.09,16.88l-.59,2.94c1.58.34,3.16.64,4.72,1l.69-2.92C106.31,17.54,104.7,17.23,103.09,16.88ZM111.77 18.89 111.01 21.79 113.34 22.41 115.66 23.09 116.51 20.22 114.15 19.52 111.77 18.89M120.22,21.37l-.93,2.85c1.54.48,3,1,4.57,1.57l1-2.82C123.33,22.43,121.79,21.86,120.22,21.37ZM128.55,24.34l-1.09,2.8c1.5.59,3,1.19,4.49,1.82l1.16-2.77Q130.83,25.24,128.55,24.34ZM136.75 27.74 135.56 30.5 140.02 32.46 141.24 29.72 136.75 27.74M144.76 31.3 143.53 34.04 148 36.04 149.22 33.3 144.76 31.3M152.77,34.87l-1.2,2.75q2.25,1,4.53,1.93l1.16-2.76Q155,35.85,152.77,34.87ZM160.89,38.26l-1.1,2.79c1.54.6,3.08,1.2,4.64,1.75l1-2.82C163.92,39.44,162.4,38.85,160.89,38.26ZM169.06,41.22l-.93,2.86c1.58.5,3.17,1,4.77,1.43l.8-2.9C172.14,42.19,170.6,41.71,169.06,41.22ZM177.42,43.57l-.68,2.92c1.63.37,3.26.71,4.91,1l.51-3C180.57,44.26,179,43.92,177.42,43.57ZM186,45.1l-.37,3c.84.09,1.67.2,2.5.27l2.51.18.16-3-2.4-.18ZM194.6,45.61l0,3c1.68,0,3.37-.1,5.05-.24l-.28-3C197.81,45.51,196.21,45.62,194.6,45.61ZM203.17,44.89l.5,3c.84-.12,1.67-.28,2.5-.48s1.66-.35,2.47-.6l-.79-2.9c-.76.24-1.55.39-2.33.57S204,44.77,203.17,44.89Z"/>
</svg>
