<?xml version="1.0" standalone="no"?>
<!DOCTYPE svg PUBLIC "-//W3C//DTD SVG 20010904//EN"
 "http://www.w3.org/TR/2001/REC-SVG-20010904/DTD/svg10.dtd">
<svg version="1.0" xmlns="http://www.w3.org/2000/svg"
 width="700.000000pt" height="700.000000pt" viewBox="0 0 700.000000 700.000000"
 preserveAspectRatio="xMidYMid meet">
<metadata>
Created by potrace 1.11, written by Peter Selinger 2001-2013
</metadata>
<g transform="translate(0.000000,700.000000) scale(0.100000,-0.100000)"
fill="#000000" stroke="none">
<path d="M3205 6989 c-835 -76 -1597 -431 -2180 -1016 -566 -566 -909 -1282
-1007 -2098 -17 -145 -17 -628 0 -755 56 -411 136 -705 284 -1040 294 -667
809 -1240 1443 -1608 416 -241 877 -393 1380 -454 143 -17 605 -17 745 0 589
72 1084 250 1550 556 1315 866 1888 2478 1415 3985 -262 838 -849 1559 -1620
1992 -405 226 -818 362 -1297 425 -145 19 -565 27 -713 13z m606 -784 c898
-105 1687 -647 2103 -1445 147 -283 237 -565 288 -905 20 -138 17 -599 -5
-740 -59 -367 -169 -683 -342 -980 -423 -725 -1117 -1194 -1970 -1332 -156
-25 -612 -25 -770 0 -607 97 -1118 353 -1537 770 -415 413 -677 931 -773 1532
-36 219 -31 612 11 854 145 855 703 1602 1478 1981 303 148 588 231 921 269
122 14 462 12 596 -4z"/>
<path d="M3295 5534 c-311 -34 -633 -146 -895 -313 -158 -100 -364 -284 -483
-431 -446 -552 -576 -1287 -346 -1955 282 -822 1058 -1375 1929 -1375 1028 0
1891 760 2025 1783 118 907 -398 1794 -1247 2146 -121 49 -278 95 -423 122
-83 16 -160 22 -315 24 -113 2 -223 1 -245 -1z"/>
</g>
</svg>
