<svg xmlns="http://www.w3.org/2000/svg" viewBox="0 0 214.53 61.69"><defs><style>.cls-1{fill:none;}.cls-2{fill-rule:evenodd;}</style></defs><title>line</title><g id="Layer_2" data-name="Layer 2"><g id="Layer_1-2" data-name="Layer 1"><path class="cls-1" d="M27.16,47.85a21,21,0,0,1,4.52-6.15,31.2,31.2,0,0,1,7.26-5.06L25.13,10a61.08,61.08,0,0,0-14.22,10A51.06,51.06,0,0,0,0,35.11Z"/><path class="cls-2" d="M25.58,26l1.73,2.45a44.16,44.16,0,0,1,4-2.52L29.8,23.31A47.77,47.77,0,0,0,25.58,26Z"/><path class="cls-2" d="M18.78,31.88l2.21,2a44.4,44.4,0,0,1,3.38-3.2l-1.94-2.28A45.69,45.69,0,0,0,18.78,31.88Z"/><path class="cls-2" d="M13.59,39.21l2.63,1.43a33.76,33.76,0,0,1,2.46-3.91l-2.41-1.79A37.22,37.22,0,0,0,13.59,39.21Z"/><path class="cls-1" d="M38.94,36.64A50.37,50.37,0,0,1,48.39,33a76.17,76.17,0,0,1,10.72-2.14L55.31,1.06a90.11,90.11,0,0,0-30.18,9Z"/><path class="cls-2" d="M50.25,16l.6,2.94c1.55-.36,3.14-.57,4.71-.84l-.44-3C53.5,15.42,51.86,15.64,50.25,16Z"/><polygon class="cls-2" points="41.64 18.23 42.56 21.09 44.83 20.39 47.15 19.79 46.41 16.88 44.02 17.5 41.64 18.23"/><path class="cls-2" d="M33.36,21.46l1.29,2.71c.71-.34,1.45-.64,2.17-1s1.45-.64,2.2-.9L38,19.52c-.79.27-1.55.6-2.31.94S34.11,21.1,33.36,21.46Z"/><path class="cls-1" d="M59.11,30.81c.93-.12,1.85-.24,2.79-.31s1.83-.19,2.84-.23l3-.16,3-.09q5.93-.11,11.86.29l2-29.93Q77.32-.1,70.06,0L66.43.14l-3.62.2c-1.19,0-2.49.19-3.73.3s-2.51.26-3.77.42Z"/><path class="cls-2" d="M76.73,14l-.07,3c1.61,0,3.22.1,4.83.18l.16-3C80,14.08,78.37,14,76.73,14Z"/><path class="cls-2" d="M67.89,14,68,17c1.6-.06,3.21-.11,4.83-.1l0-3C71.17,13.93,69.53,14,67.89,14Z"/><path class="cls-2" d="M59.08,14.63l.32,3c1.6-.12,3.18-.32,4.79-.39l-.18-3C62.37,14.3,60.72,14.5,59.08,14.63Z"/><path class="cls-1" d="M82.52,30.31A137.57,137.57,0,0,1,106,34l7.21-29.11A166.83,166.83,0,0,0,84.56.38Z"/><path class="cls-2" d="M103.09,16.88l-.59,2.94c1.58.34,3.16.64,4.72,1l.69-2.92C106.31,17.54,104.7,17.23,103.09,16.88Z"/><path class="cls-2" d="M94.38,15.4l-.42,3c1.59.24,3.19.47,4.77.75l.52-2.95C97.63,15.88,96,15.65,94.38,15.4Z"/><path class="cls-2" d="M85.62,14.44l-.25,3c1.61.1,3.21.31,4.81.46l.34-3C88.89,14.75,87.26,14.55,85.62,14.44Z"/><path class="cls-1" d="M106,34c3.83,1,7.63,2.08,11.37,3.36s7.44,2.76,11.28,4.39l11.77-27.59c-4.25-1.81-8.69-3.6-13.3-5.16S117.86,6,113.17,4.86Z"/><path class="cls-2" d="M128.55,24.34l-1.09,2.8c1.5.59,3,1.19,4.49,1.82l1.16-2.77Q130.83,25.24,128.55,24.34Z"/><path class="cls-2" d="M120.22,21.37l-.93,2.85c1.54.48,3,1,4.57,1.57l1-2.82C123.33,22.43,121.79,21.86,120.22,21.37Z"/><polygon class="cls-2" points="111.77 18.89 111.01 21.79 113.34 22.41 115.66 23.09 116.51 20.22 114.15 19.52 111.77 18.89"/><path class="cls-1" d="M128.61,41.72C136.27,45,144.28,48.85,153,52.4l11.3-27.79c-7.57-3.07-15.41-6.84-23.92-10.48Z"/><path class="cls-2" d="M152.77,34.87l-1.2,2.75q2.25,1,4.53,1.93l1.16-2.76Q155,35.85,152.77,34.87Z"/><polygon class="cls-2" points="144.76 31.3 143.53 34.04 148 36.04 149.22 33.3 144.76 31.3"/><polygon class="cls-2" points="136.75 27.74 135.56 30.5 140.02 32.46 141.24 29.72 136.75 27.74"/><path class="cls-1" d="M153,52.4c4.37,1.77,8.92,3.47,13.74,4.92a105.9,105.9,0,0,0,14.94,3.4l4.44-29.67a76.22,76.22,0,0,1-10.74-2.45c-3.61-1.09-7.3-2.45-11.08-4Z"/><path class="cls-2" d="M177.42,43.57l-.68,2.92c1.63.37,3.26.71,4.91,1l.51-3C180.57,44.26,179,43.92,177.42,43.57Z"/><path class="cls-2" d="M169.06,41.22l-.93,2.86c1.58.5,3.17,1,4.77,1.43l.8-2.9C172.14,42.19,170.6,41.71,169.06,41.22Z"/><path class="cls-2" d="M160.89,38.26l-1.1,2.79c1.54.6,3.08,1.2,4.64,1.75l1-2.82C163.92,39.44,162.4,38.85,160.89,38.26Z"/><path class="cls-1" d="M181.68,60.72a81.33,81.33,0,0,0,16.1.87,67.38,67.38,0,0,0,16.75-2.94l-9.06-28.59a43.21,43.21,0,0,1-19.35,1Z"/><path class="cls-2" d="M203.17,44.89l.5,3c.84-.12,1.67-.28,2.5-.48s1.66-.35,2.47-.6l-.79-2.9c-.76.24-1.55.39-2.33.57S204,44.77,203.17,44.89Z"/><path class="cls-2" d="M194.6,45.61l0,3c1.68,0,3.37-.1,5.05-.24l-.28-3C197.81,45.51,196.21,45.62,194.6,45.61Z"/><path class="cls-2" d="M186,45.1l-.37,3c.84.09,1.67.2,2.5.27l2.51.18.16-3-2.4-.18Z"/></g></g></svg>